<?xml version="1.0" encoding="UTF-8" standalone="no"?>
<!DOCTYPE svg PUBLIC "-//W3C//DTD SVG 1.1//EN" "http://www.w3.org/Graphics/SVG/1.1/DTD/svg11.dtd">
<svg width="100%" height="100%" viewBox="0 0 384 384" version="1.1" xmlns="http://www.w3.org/2000/svg" xmlns:xlink="http://www.w3.org/1999/xlink" xml:space="preserve" xmlns:serif="http://www.serif.com/" style="fill-rule:evenodd;clip-rule:evenodd;stroke-linejoin:round;stroke-miterlimit:2;">
    <g transform="matrix(1,0,0,1,-2497.46,-3861.84)">
        <g transform="matrix(0.8,0,0,1.04348,2443.32,1965.62)">
            <rect x="67.671" y="1817.21" width="480" height="368" style="fill:none;"/>
            <g transform="matrix(3.08349,0,0,3.49851,-28.1401,-4132.14)">
                <g transform="matrix(2.60495e-17,0.287465,-0.370912,1.53468e-17,847.707,1683.09)">
                    <path d="M174.469,1930.62C194.431,1910.18 218.147,1897.21 243.671,1897.21C333.826,1897.21 401.436,2059.01 360.671,2140.54C319.907,2222.07 167.436,2222.07 126.671,2140.54C109.031,2105.26 111.685,2054.95 127.678,2009.22C136.673,2027.44 147.592,2044.26 160.006,2058.47C158.159,2077.01 160.241,2094.8 167.296,2108.91C193.906,2162.13 293.436,2162.13 320.046,2108.91C346.656,2055.69 302.522,1950.07 243.671,1950.07C224.006,1950.07 205.983,1961.87 191.695,1979.56C182.92,1964.9 176.804,1947.53 174.469,1930.62Z" style="fill:url(#_Linear1);"/>
                    <path d="M174.469,1930.62C194.431,1910.18 218.147,1897.21 243.671,1897.21C333.826,1897.21 401.436,2059.01 360.671,2140.54C319.907,2222.07 167.436,2222.07 126.671,2140.54C109.031,2105.26 111.685,2054.95 127.678,2009.22C136.673,2027.44 147.592,2044.26 160.006,2058.47C158.159,2077.01 160.241,2094.8 167.296,2108.91C193.906,2162.13 293.436,2162.13 320.046,2108.91C346.656,2055.69 302.522,1950.07 243.671,1950.07C224.006,1950.07 205.983,1961.87 191.695,1979.56C182.92,1964.9 176.804,1947.53 174.469,1930.62ZM175.493,1931.04C177.804,1947.18 183.576,1963.7 191.815,1977.81C206.158,1960.45 224.121,1948.98 243.671,1948.98C273.428,1948.98 299.518,1975.6 314.751,2009.03C329.973,2042.43 334.318,2082.57 320.873,2109.46C307.417,2136.37 275.563,2149.92 243.671,2149.92C211.779,2149.92 179.925,2136.37 166.47,2109.46C159.387,2095.29 157.227,2077.47 159.008,2058.87C147.119,2045.19 136.602,2029.12 127.836,2011.74C112.606,2056.57 110.256,2105.51 127.498,2140C147.729,2180.46 195.72,2200.6 243.671,2200.6C291.623,2200.6 339.613,2180.46 359.845,2140C380.087,2099.51 373.34,2039.11 350.421,1988.81C327.515,1938.54 288.417,1898.3 243.671,1898.3C218.544,1898.3 195.193,1911.01 175.493,1931.04Z" style="fill:rgb(63,209,226);"/>
                </g>
                <g transform="matrix(2.60495e-17,-0.287465,0.370912,1.53468e-17,-629.894,1823.18)">
                    <path d="M174.469,1930.62C194.431,1910.18 218.147,1897.21 243.671,1897.21C333.826,1897.21 401.436,2059.01 360.671,2140.54C319.907,2222.07 167.436,2222.07 126.671,2140.54C109.031,2105.26 111.685,2054.95 127.678,2009.22C136.673,2027.44 147.592,2044.26 160.006,2058.47C158.159,2077.01 160.241,2094.8 167.296,2108.91C193.906,2162.13 293.436,2162.13 320.046,2108.91C346.656,2055.69 302.522,1950.07 243.671,1950.07C224.006,1950.07 205.983,1961.87 191.695,1979.56C182.92,1964.9 176.804,1947.53 174.469,1930.62Z" style="fill:url(#_Linear2);"/>
                    <path d="M174.469,1930.62C194.431,1910.18 218.147,1897.21 243.671,1897.21C333.826,1897.21 401.436,2059.01 360.671,2140.54C319.907,2222.07 167.436,2222.07 126.671,2140.54C109.031,2105.26 111.685,2054.95 127.678,2009.22C136.673,2027.44 147.592,2044.26 160.006,2058.47C158.159,2077.01 160.241,2094.8 167.296,2108.91C193.906,2162.13 293.436,2162.13 320.046,2108.91C346.656,2055.69 302.522,1950.07 243.671,1950.07C224.006,1950.07 205.983,1961.87 191.695,1979.56C182.92,1964.9 176.804,1947.53 174.469,1930.62ZM175.493,1931.04C177.804,1947.18 183.576,1963.7 191.815,1977.81C206.158,1960.45 224.121,1948.98 243.671,1948.98C273.428,1948.98 299.518,1975.6 314.751,2009.03C329.973,2042.43 334.318,2082.57 320.873,2109.46C307.417,2136.37 275.563,2149.92 243.671,2149.92C211.779,2149.92 179.925,2136.37 166.47,2109.46C159.387,2095.29 157.227,2077.47 159.008,2058.87C147.119,2045.19 136.602,2029.12 127.836,2011.74C112.606,2056.57 110.256,2105.51 127.498,2140C147.729,2180.46 195.72,2200.6 243.671,2200.6C291.623,2200.6 339.613,2180.46 359.845,2140C380.087,2099.51 373.34,2039.11 350.421,1988.81C327.515,1938.54 288.417,1898.3 243.671,1898.3C218.544,1898.3 195.193,1911.01 175.493,1931.04Z" style="fill:rgb(63,209,226);"/>
                </g>
            </g>
        </g>
    </g>
    <defs>
        <linearGradient id="_Linear1" x1="0" y1="0" x2="1" y2="0" gradientUnits="userSpaceOnUse" gradientTransform="matrix(-238.276,-94.6357,82.5102,-273.293,372.772,2086.48)"><stop offset="0" style="stop-color:rgb(15,36,120);stop-opacity:1"/><stop offset="1" style="stop-color:rgb(63,209,226);stop-opacity:1"/></linearGradient>
        <linearGradient id="_Linear2" x1="0" y1="0" x2="1" y2="0" gradientUnits="userSpaceOnUse" gradientTransform="matrix(-238.321,-94.6357,82.5102,-273.345,372.818,2086.48)"><stop offset="0" style="stop-color:rgb(136,230,113);stop-opacity:1"/><stop offset="1" style="stop-color:rgb(63,209,226);stop-opacity:1"/></linearGradient>
    </defs>
</svg>
