<?xml version="1.0" encoding="UTF-8" standalone="no"?>
<!DOCTYPE svg PUBLIC "-//W3C//DTD SVG 1.1//EN" "http://www.w3.org/Graphics/SVG/1.1/DTD/svg11.dtd">
<svg width="100%" height="100%" viewBox="0 0 1604 390" version="1.1" xmlns="http://www.w3.org/2000/svg" xmlns:xlink="http://www.w3.org/1999/xlink" xml:space="preserve" xmlns:serif="http://www.serif.com/" style="fill-rule:evenodd;clip-rule:evenodd;stroke-linejoin:round;stroke-miterlimit:2;">
    <g transform="matrix(1,0,0,1,-53.6713,-4329.18)">
        <g transform="matrix(1,0,0,0.766732,0,2983.4)">
            <rect x="53.671" y="1755.21" width="1604" height="508" style="fill:none;"/>
            <g>
                <g transform="matrix(2.46679,0,0,4.76127,39.0221,-6337.93)">
                    <g>
                        <g transform="matrix(2.60495e-17,0.287465,-0.370912,1.53468e-17,847.707,1683.09)">
                            <path d="M174.469,1930.62C194.431,1910.18 218.147,1897.21 243.671,1897.21C333.826,1897.21 401.436,2059.01 360.671,2140.54C319.907,2222.07 167.436,2222.07 126.671,2140.54C109.031,2105.26 111.685,2054.95 127.678,2009.22C136.673,2027.44 147.592,2044.26 160.006,2058.47C158.159,2077.01 160.241,2094.8 167.296,2108.91C193.906,2162.13 293.436,2162.13 320.046,2108.91C346.656,2055.69 302.522,1950.07 243.671,1950.07C224.006,1950.07 205.983,1961.87 191.695,1979.56C182.92,1964.9 176.804,1947.53 174.469,1930.62Z"/>
                        </g>
                        <g transform="matrix(2.60495e-17,-0.287465,0.370912,1.53468e-17,-629.894,1823.18)">
                            <path d="M174.469,1930.62C194.431,1910.18 218.147,1897.21 243.671,1897.21C333.826,1897.21 401.436,2059.01 360.671,2140.54C319.907,2222.07 167.436,2222.07 126.671,2140.54C109.031,2105.26 111.685,2054.95 127.678,2009.22C136.673,2027.44 147.592,2044.26 160.006,2058.47C158.159,2077.01 160.241,2094.8 167.296,2108.91C193.906,2162.13 293.436,2162.13 320.046,2108.91C346.656,2055.69 302.522,1950.07 243.671,1950.07C224.006,1950.07 205.983,1961.87 191.695,1979.56C182.92,1964.9 176.804,1947.53 174.469,1930.62Z" style="fill:rgb(15,36,120);"/>
                        </g>
                    </g>
                    <g>
                        <g transform="matrix(2.60495e-17,0.287465,-0.370912,1.53468e-17,847.707,1683.09)">
                            <path d="M174.469,1930.62C194.431,1910.18 218.147,1897.21 243.671,1897.21C333.826,1897.21 401.436,2059.01 360.671,2140.54C319.907,2222.07 167.436,2222.07 126.671,2140.54C109.031,2105.26 111.685,2054.95 127.678,2009.22C136.673,2027.44 147.592,2044.26 160.006,2058.47C158.159,2077.01 160.241,2094.8 167.296,2108.91C193.906,2162.13 293.436,2162.13 320.046,2108.91C346.656,2055.69 302.522,1950.07 243.671,1950.07C224.006,1950.07 205.983,1961.87 191.695,1979.56C182.92,1964.9 176.804,1947.53 174.469,1930.62Z"/>
                        </g>
                        <g transform="matrix(2.60495e-17,-0.287465,0.370912,1.53468e-17,-629.894,1823.18)">
                            <path d="M174.469,1930.62C194.431,1910.18 218.147,1897.21 243.671,1897.21C333.826,1897.21 401.436,2059.01 360.671,2140.54C319.907,2222.07 167.436,2222.07 126.671,2140.54C109.031,2105.26 111.685,2054.95 127.678,2009.22C136.673,2027.44 147.592,2044.26 160.006,2058.47C158.159,2077.01 160.241,2094.8 167.296,2108.91C193.906,2162.13 293.436,2162.13 320.046,2108.91C346.656,2055.69 302.522,1950.07 243.671,1950.07C224.006,1950.07 205.983,1961.87 191.695,1979.56C182.92,1964.9 176.804,1947.53 174.469,1930.62Z" style="fill:rgb(15,36,120);"/>
                        </g>
                    </g>
                </g>
            </g>
            <g transform="matrix(3.14516,0,0,6.07061,39.7028,-8614.24)">
                <g>
                    <g transform="matrix(9.89582e-18,0.109204,-0.155436,6.43132e-18,507.979,1722.61)">
                        <path d="M352.656,1991.41C374.604,2041.41 380.638,2100.61 360.671,2140.54C319.907,2222.07 167.436,2222.07 126.671,2140.54C106.704,2100.61 112.738,2041.41 134.687,1991.41L171.488,2013.99C158.017,2046.1 154.584,2083.49 167.296,2108.91C193.906,2162.13 293.436,2162.13 320.046,2108.91C332.759,2083.49 329.325,2046.1 315.855,2013.99L352.656,1991.41Z"/>
                    </g>
                    <g transform="matrix(0.37761,0,0,0.255159,85.1937,1279.3)">
                        <rect x="308.897" y="1786.58" width="18.9" height="109.008"/>
                    </g>
                    <g transform="matrix(0.317949,0,0,0.214844,-12.8272,1321.55)">
                        <path d="M771.265,2043.33C769.108,2047.16 766.136,2050.18 762.35,2052.37C757.405,2055.24 751.64,2056.67 745.056,2056.67C737.816,2056.67 731.553,2055.07 726.265,2051.88C720.978,2048.69 716.93,2044.24 714.123,2038.52C711.315,2032.81 709.911,2026.16 709.911,2018.57L709.911,1961.67L732.358,1961.67L732.358,2016.65C732.358,2020.53 733.142,2023.93 734.709,2026.87C736.277,2029.81 738.493,2032.09 741.358,2033.71C744.222,2035.33 747.479,2036.15 751.127,2036.15C754.861,2036.15 758.146,2035.33 760.982,2033.69C763.818,2032.05 766.027,2029.73 767.609,2026.74C769.191,2023.75 769.982,2020.24 769.982,2016.22L769.982,1961.67L792.429,1961.67L792.429,2054.62L771.265,2054.62L771.265,2043.33Z"/>
                    </g>
                    <g transform="matrix(0.317949,0,0,0.214844,-12.8272,1321.55)">
                        <path d="M827.787,2044.25L827.787,2054.62L806.624,2054.62L806.624,1925.15L829.07,1925.15L829.07,1970.94C831.752,1968.06 834.959,1965.67 838.69,1963.78C844.191,1961.01 850.49,1959.62 857.588,1959.62C866.424,1959.62 874.383,1961.76 881.466,1966.05C888.55,1970.34 894.165,1976.14 898.312,1983.45C902.459,1990.76 904.533,1998.99 904.533,2008.14C904.533,2017.18 902.481,2025.38 898.376,2032.75C894.272,2040.12 888.678,2045.94 881.595,2050.24C874.512,2054.52 866.467,2056.67 857.459,2056.67C850.704,2056.67 844.505,2055.34 838.861,2052.69C834.446,2050.62 830.755,2047.8 827.787,2044.25ZM854.98,2036.15C860.11,2036.15 864.649,2034.95 868.597,2032.56C872.545,2030.16 875.638,2026.85 877.875,2022.62C880.113,2018.38 881.231,2013.56 881.231,2008.14C881.231,2002.7 880.113,1997.89 877.875,1993.71C875.638,1989.54 872.545,1986.23 868.597,1983.79C864.649,1981.36 860.11,1980.14 854.98,1980.14C850.02,1980.14 845.573,1981.34 841.64,1983.73C837.707,1986.12 834.628,1989.44 832.405,1993.67C830.182,1997.9 829.07,2002.73 829.07,2008.14C829.07,2013.56 830.182,2018.38 832.405,2022.62C834.628,2026.85 837.707,2030.16 841.64,2032.56C845.573,2034.95 850.02,2036.15 854.98,2036.15Z"/>
                    </g>
                </g>
                <g>
                    <g transform="matrix(0.317949,0,0,0.214844,-12.8272,1321.55)">
                        <path d="M940.148,1966.54L940.148,2054.62L916.846,2054.62L916.846,1927.21L939.079,1927.21L981.453,1984.72L1022.88,1927.21L1045.11,1927.21L1045.11,2054.62L1021.81,2054.62L1021.81,1968.02L982.347,2020.41L979.611,2020.41L940.148,1966.54Z"/>
                    </g>
                    <g transform="matrix(0.317949,0,0,0.214844,-12.8272,1321.55)">
                        <path d="M1118.57,2044.82C1117.36,2046.12 1116.09,2047.32 1114.74,2048.42C1111.42,2051.12 1107.66,2053.18 1103.45,2054.57C1099.25,2055.97 1094.59,2056.67 1089.49,2056.67C1082.99,2056.67 1077.34,2055.58 1072.52,2053.4C1067.7,2051.22 1063.98,2048.12 1061.36,2044.12C1058.74,2040.12 1057.43,2035.39 1057.43,2029.95C1057.43,2024.82 1058.58,2020.24 1060.89,2016.22C1063.2,2012.2 1066.75,2008.83 1071.56,2006.09C1076.36,2003.35 1082.38,2001.41 1089.62,2000.28L1117.28,1995.76L1117.28,1992.71C1117.28,1988.69 1115.74,1985.35 1112.64,1982.7C1109.55,1980.05 1105.41,1978.73 1100.22,1978.73C1095.41,1978.73 1091.17,1980.02 1087.5,1982.6C1083.84,1985.18 1081.15,1988.56 1079.44,1992.75L1061.14,1983.86C1062.94,1978.96 1065.8,1974.69 1069.72,1971.07C1073.64,1967.45 1078.29,1964.64 1083.68,1962.63C1089.06,1960.62 1094.88,1959.62 1101.12,1959.62C1108.7,1959.62 1115.41,1961.01 1121.24,1963.81C1127.07,1966.6 1131.61,1970.48 1134.86,1975.43C1138.11,1980.39 1139.73,1986.15 1139.73,1992.71L1139.73,2054.62L1118.57,2054.62L1118.57,2044.82ZM1117.28,2012.81L1093.85,2016.91C1089.46,2017.71 1086.18,2019.11 1084,2021.12C1081.82,2023.13 1080.73,2025.81 1080.73,2029.18C1080.73,2032.34 1081.95,2034.88 1084.38,2036.79C1086.82,2038.7 1089.88,2039.65 1093.55,2039.65C1098.29,2039.65 1102.43,2038.63 1106,2036.6C1109.56,2034.56 1112.33,2031.79 1114.31,2028.3C1116.29,2024.81 1117.28,2020.95 1117.28,2016.74L1117.28,2012.81Z"/>
                    </g>
                    <g transform="matrix(0.317949,0,0,0.214844,-12.8272,1321.55)">
                        <path d="M1175.09,1972.99C1177.26,1969.14 1180.24,1966.11 1184.02,1963.91C1188.95,1961.05 1194.71,1959.62 1201.3,1959.62C1208.22,1959.62 1214.32,1961.1 1219.6,1964.06C1224.87,1967.03 1229,1971.14 1231.97,1976.42C1234.95,1981.69 1236.44,1987.8 1236.44,1994.76L1236.44,2054.62L1214,2054.62L1214,2000.06C1214,1995.93 1213.21,1992.39 1211.64,1989.46C1210.08,1986.52 1207.88,1984.24 1205.05,1982.6C1202.22,1980.96 1198.96,1980.14 1195.28,1980.14C1191.6,1980.14 1188.31,1980.96 1185.43,1982.6C1182.56,1984.24 1180.33,1986.53 1178.74,1989.48C1177.16,1992.43 1176.37,1995.96 1176.37,2000.06L1176.37,2054.62L1153.92,2054.62L1153.92,1961.67L1175.09,1961.67L1175.09,1972.99Z"/>
                    </g>
                    <g transform="matrix(0.317949,0,0,0.214844,-12.8272,1321.55)">
                        <path d="M1306.13,2044.82C1304.93,2046.12 1303.65,2047.32 1302.31,2048.42C1298.99,2051.12 1295.22,2053.18 1291.02,2054.57C1286.81,2055.97 1282.16,2056.67 1277.06,2056.67C1270.56,2056.67 1264.9,2055.58 1260.09,2053.4C1255.27,2051.22 1251.55,2048.12 1248.93,2044.12C1246.3,2040.12 1244.99,2035.39 1244.99,2029.95C1244.99,2024.82 1246.15,2020.24 1248.46,2016.22C1250.77,2012.2 1254.32,2008.83 1259.12,2006.09C1263.93,2003.35 1269.95,2001.41 1277.19,2000.28L1304.85,1995.76L1304.85,1992.71C1304.85,1988.69 1303.3,1985.35 1300.21,1982.7C1297.12,1980.05 1292.98,1978.73 1287.79,1978.73C1282.97,1978.73 1278.73,1980.02 1275.07,1982.6C1271.41,1985.18 1268.72,1988.56 1267.01,1992.75L1248.71,1983.86C1250.51,1978.96 1253.37,1974.69 1257.29,1971.07C1261.2,1967.45 1265.86,1964.64 1271.24,1962.63C1276.63,1960.62 1282.45,1959.62 1288.69,1959.62C1296.27,1959.62 1302.98,1961.01 1308.81,1963.81C1314.63,1966.6 1319.17,1970.48 1322.42,1975.43C1325.67,1980.39 1327.3,1986.15 1327.3,1992.71L1327.3,2054.62L1306.13,2054.62L1306.13,2044.82ZM1304.85,2012.81L1281.42,2016.91C1277.03,2017.71 1273.75,2019.11 1271.57,2021.12C1269.38,2023.13 1268.29,2025.81 1268.29,2029.18C1268.29,2032.34 1269.51,2034.88 1271.95,2036.79C1274.39,2038.7 1277.44,2039.65 1281.12,2039.65C1285.85,2039.65 1290,2038.63 1293.56,2036.6C1297.12,2034.56 1299.9,2031.79 1301.88,2028.3C1303.86,2024.81 1304.85,2020.95 1304.85,2016.74L1304.85,2012.81Z"/>
                    </g>
                    <g transform="matrix(0.317949,0,0,0.214844,-12.8272,1321.55)">
                        <path d="M1409.77,2039.88C1407.32,2042.63 1404.47,2044.86 1401.22,2046.58C1395.89,2049.4 1389.78,2050.81 1382.88,2050.81C1374.24,2050.81 1366.5,2048.82 1359.66,2044.85C1352.82,2040.87 1347.45,2035.42 1343.57,2028.49C1339.67,2021.57 1337.73,2013.74 1337.73,2005.02C1337.73,1996.27 1339.67,1988.48 1343.57,1981.65C1347.45,1974.83 1352.77,1969.45 1359.51,1965.52C1366.25,1961.58 1373.91,1959.62 1382.49,1959.62C1389.39,1959.62 1395.48,1961.05 1400.77,1963.91C1404.68,1966.03 1408.11,1968.88 1411.05,1972.47L1411.05,1961.67L1432.22,1961.67L1432.22,2050C1432.22,2058.12 1430.26,2065.38 1426.34,2071.76C1422.42,2078.15 1417.05,2083.16 1410.24,2086.79C1403.43,2090.43 1395.59,2092.24 1386.73,2092.24C1379.77,2092.24 1373.32,2091.1 1367.38,2088.82C1361.44,2086.54 1356.34,2083.38 1352.09,2079.33C1347.85,2075.28 1344.74,2070.52 1342.77,2065.05L1363.55,2057.18C1364.95,2061.51 1367.69,2065.02 1371.76,2067.7C1375.84,2070.38 1380.8,2071.72 1386.64,2071.72C1391.2,2071.72 1395.22,2070.87 1398.7,2069.18C1402.17,2067.48 1404.89,2064.99 1406.84,2061.71C1408.8,2058.44 1409.77,2054.53 1409.77,2050L1409.77,2039.88ZM1385.74,2030.16C1390.47,2030.16 1394.64,2029.1 1398.23,2026.98C1401.82,2024.85 1404.64,2021.92 1406.69,2018.17C1408.75,2014.42 1409.77,2010.12 1409.77,2005.28C1409.77,2000.43 1408.72,1996.11 1406.63,1992.32C1404.53,1988.53 1401.69,1985.55 1398.1,1983.39C1394.51,1981.22 1390.39,1980.14 1385.74,1980.14C1380.98,1980.14 1376.73,1981.22 1372.98,1983.39C1369.23,1985.55 1366.3,1988.53 1364.19,1992.3C1362.09,1996.08 1361.03,2000.4 1361.03,2005.28C1361.03,2010.04 1362.09,2014.29 1364.19,2018.04C1366.3,2021.79 1369.23,2024.75 1372.96,2026.91C1376.69,2029.08 1380.95,2030.16 1385.74,2030.16Z"/>
                    </g>
                    <g transform="matrix(0.317949,0,0,0.214844,-12.8272,1321.55)">
                        <path d="M1465.95,2014.51C1466.25,2017.69 1467.01,2020.6 1468.24,2023.26C1470.25,2027.6 1473.21,2030.98 1477.13,2033.39C1481.05,2035.8 1485.62,2037 1490.84,2037C1495.94,2037 1500.28,2035.92 1503.85,2033.75C1507.43,2031.59 1510.26,2028.71 1512.34,2025.12L1530.47,2033.88C1528.64,2038.33 1525.79,2042.27 1521.9,2045.7C1518.01,2049.14 1513.4,2051.82 1508.09,2053.76C1502.77,2055.7 1496.93,2056.67 1490.58,2056.67C1481,2056.67 1472.61,2054.5 1465.42,2050.17C1458.22,2045.84 1452.63,2039.98 1448.64,2032.6C1444.64,2025.22 1442.65,2016.99 1442.65,2007.93C1442.65,1998.61 1444.69,1990.32 1448.79,1983.07C1452.88,1975.81 1458.4,1970.09 1465.37,1965.9C1472.34,1961.71 1480.2,1959.62 1488.95,1959.62C1496.16,1959.62 1502.56,1960.8 1508.13,1963.16C1513.7,1965.53 1518.42,1968.82 1522.28,1973.02C1526.14,1977.22 1529.09,1982.05 1531.11,1987.49C1533.13,1992.94 1534.15,1998.78 1534.15,2005.02C1534.15,2006.67 1534.07,2008.34 1533.91,2010.02C1533.75,2011.71 1533.48,2013.2 1533.08,2014.51L1465.95,2014.51ZM1466.51,1997.41L1510.33,1997.41C1510.18,1995.27 1509.75,1993.24 1509.03,1991.34C1507.47,1987.24 1504.95,1983.99 1501.46,1981.59C1497.97,1979.2 1493.8,1978 1488.95,1978C1484.19,1978 1480.01,1979.18 1476.4,1981.55C1472.8,1983.91 1470.06,1987.34 1468.17,1991.83C1467.45,1993.55 1466.9,1995.41 1466.51,1997.41Z"/>
                    </g>
                    <g transform="matrix(0.317949,0,0,0.214844,-12.8272,1321.55)">
                        <path d="M1565.74,1974.6C1567.79,1970.06 1570.59,1966.75 1574.12,1964.68C1578.77,1961.96 1584.31,1960.6 1590.75,1960.6L1596.31,1960.6L1596.31,1980.48L1588.27,1980.48C1581.92,1980.48 1576.79,1982.42 1572.88,1986.32C1568.98,1990.21 1567.03,1995.7 1567.03,2002.8L1567.03,2054.62L1544.58,2054.62L1544.58,1961.67L1565.74,1961.67L1565.74,1974.6Z"/>
                    </g>
                </g>
            </g>
        </g>
    </g>
</svg>
